<svg width="1094" height="300" viewBox="0 0 1094 300" fill="none" xmlns="http://www.w3.org/2000/svg">
<rect x="50" y="50" width="100" height="100" rx="17" fill="#C77A7A"/>
<rect x="50.5" y="50.5" width="99" height="99" rx="16.5" stroke="black" stroke-opacity="0.15"/>
<path d="M77.4283 71.576H107.26C112.364 71.576 116.324 73.0133 119.14 75.888C122.015 78.7627 123.452 82.576 123.452 87.328C123.452 89.6747 123.13 91.6693 122.484 93.312C121.898 94.9547 121.076 96.304 120.02 97.36C119.023 98.416 117.82 99.208 116.412 99.736C115.063 100.205 113.596 100.469 112.012 100.528V101.056C113.479 101.056 115.004 101.32 116.588 101.848C118.231 102.376 119.727 103.227 121.076 104.4C122.426 105.515 123.54 106.981 124.42 108.8C125.359 110.619 125.828 112.848 125.828 115.488C125.828 117.893 125.418 120.181 124.596 122.352C123.834 124.464 122.748 126.312 121.34 127.896C119.932 129.48 118.26 130.741 116.324 131.68C114.388 132.56 112.276 133 109.988 133H77.4283V71.576ZM90.8043 121.736H106.204C107.964 121.736 109.343 121.267 110.34 120.328C111.396 119.331 111.924 117.952 111.924 116.192V113.2C111.924 111.44 111.396 110.091 110.34 109.152C109.343 108.155 107.964 107.656 106.204 107.656H90.8043V121.736ZM90.8043 96.744H104.092C105.852 96.744 107.231 96.2453 108.228 95.248C109.226 94.2507 109.724 92.872 109.724 91.112V88.472C109.724 86.712 109.226 85.3333 108.228 84.336C107.231 83.3387 105.852 82.84 104.092 82.84H90.8043V96.744Z" fill="black"/>
<rect x="50" y="150" width="100" height="100" rx="17" fill="#3D8286"/>
<rect x="50.5" y="150.5" width="99" height="99" rx="16.5" stroke="black" stroke-opacity="0.15"/>
<path d="M76.0963 171.576H99.2403C103.288 171.576 106.984 172.221 110.328 173.512C113.672 174.803 116.518 176.739 118.864 179.32C121.211 181.843 123.03 185.04 124.32 188.912C125.611 192.725 126.256 197.184 126.256 202.288C126.256 207.392 125.611 211.88 124.32 215.752C123.03 219.565 121.211 222.763 118.864 225.344C116.518 227.867 113.672 229.773 110.328 231.064C106.984 232.355 103.288 233 99.2403 233H76.0963V171.576ZM99.2403 221.12C103.23 221.12 106.368 220.005 108.656 217.776C110.944 215.547 112.088 211.968 112.088 207.04V197.536C112.088 192.608 110.944 189.029 108.656 186.8C106.368 184.571 103.23 183.456 99.2403 183.456H89.4723V221.12H99.2403Z" fill="black"/>
<rect x="150" y="150" width="100" height="100" rx="17" fill="#E2D3D3"/>
<rect x="150.5" y="150.5" width="99" height="99" rx="16.5" stroke="black" stroke-opacity="0.15"/>
<path d="M202.932 234.056C198.767 234.056 195.012 233.411 191.668 232.12C188.324 230.771 185.479 228.805 183.132 226.224C180.785 223.584 178.967 220.328 177.676 216.456C176.385 212.525 175.74 207.949 175.74 202.728C175.74 197.565 176.385 192.989 177.676 189C178.967 184.952 180.785 181.579 183.132 178.88C185.479 176.123 188.324 174.04 191.668 172.632C195.012 171.224 198.767 170.52 202.932 170.52C208.623 170.52 213.316 171.693 217.012 174.04C220.708 176.328 223.671 179.965 225.9 184.952L214.372 190.936C213.551 188.355 212.26 186.301 210.5 184.776C208.799 183.192 206.276 182.4 202.932 182.4C199.001 182.4 195.833 183.691 193.428 186.272C191.081 188.795 189.908 192.491 189.908 197.36V207.216C189.908 212.085 191.081 215.811 193.428 218.392C195.833 220.915 199.001 222.176 202.932 222.176C206.217 222.176 208.828 221.296 210.764 219.536C212.759 217.717 214.225 215.547 215.164 213.024L226.076 219.36C223.788 224.053 220.767 227.691 217.012 230.272C213.316 232.795 208.623 234.056 202.932 234.056Z" fill="black"/>
<rect x="150" y="50" width="100" height="100" rx="17" fill="#682B2B"/>
<rect x="150.5" y="50.5" width="99" height="99" rx="16.5" stroke="black" stroke-opacity="0.15"/>
<path d="M190.504 133H177.128V71.576H206.256C209.072 71.576 211.624 72.0453 213.912 72.984C216.2 73.9227 218.136 75.272 219.72 77.032C221.362 78.7333 222.624 80.7867 223.504 83.192C224.384 85.5973 224.824 88.2667 224.824 91.2C224.824 95.3653 223.885 99.0027 222.008 102.112C220.189 105.221 217.402 107.48 213.648 108.888L225.704 133H210.832L200.096 110.472H190.504V133ZM204.584 99.208C206.578 99.208 208.133 98.7093 209.248 97.712C210.421 96.656 211.008 95.1307 211.008 93.136V89.264C211.008 87.2693 210.421 85.7733 209.248 84.776C208.133 83.72 206.578 83.192 204.584 83.192H190.504V99.208H204.584Z" fill="black"/>
<path d="M311.088 103.488H359.904C368.256 103.488 374.736 105.84 379.344 110.544C384.048 115.248 386.4 121.488 386.4 129.264C386.4 133.104 385.872 136.368 384.816 139.056C383.856 141.744 382.512 143.952 380.784 145.68C379.152 147.408 377.184 148.704 374.88 149.568C372.672 150.336 370.272 150.768 367.68 150.864V151.728C370.08 151.728 372.576 152.16 375.168 153.024C377.856 153.888 380.304 155.28 382.512 157.2C384.72 159.024 386.544 161.424 387.984 164.4C389.52 167.376 390.288 171.024 390.288 175.344C390.288 179.28 389.616 183.024 388.272 186.576C387.024 190.032 385.248 193.056 382.944 195.648C380.64 198.24 377.904 200.304 374.736 201.84C371.568 203.28 368.112 204 364.368 204H311.088V103.488ZM332.976 185.568H358.176C361.056 185.568 363.312 184.8 364.944 183.264C366.672 181.632 367.536 179.376 367.536 176.496V171.6C367.536 168.72 366.672 166.512 364.944 164.976C363.312 163.344 361.056 162.528 358.176 162.528H332.976V185.568ZM332.976 144.672H354.72C357.6 144.672 359.856 143.856 361.488 142.224C363.12 140.592 363.936 138.336 363.936 135.456V131.136C363.936 128.256 363.12 126 361.488 124.368C359.856 122.736 357.6 121.92 354.72 121.92H332.976V144.672ZM429.023 204H407.135V103.488H454.799C459.407 103.488 463.583 104.256 467.327 105.792C471.071 107.328 474.239 109.536 476.831 112.416C479.519 115.2 481.583 118.56 483.023 122.496C484.463 126.432 485.183 130.8 485.183 135.6C485.183 142.416 483.647 148.368 480.575 153.456C477.599 158.544 473.039 162.24 466.895 164.544L486.623 204H462.287L444.719 167.136H429.023V204ZM452.063 148.704C455.327 148.704 457.871 147.888 459.695 146.256C461.615 144.528 462.575 142.032 462.575 138.768V132.432C462.575 129.168 461.615 126.72 459.695 125.088C457.871 123.36 455.327 122.496 452.063 122.496H429.023V148.704H452.063ZM500.278 204V186.576H513.238V120.912H500.278V103.488H548.086V120.912H535.126V186.576H548.086V204H500.278ZM606.93 205.728C600.114 205.728 593.97 204.672 588.498 202.56C583.026 200.352 578.37 197.136 574.53 192.912C570.69 188.592 567.714 183.264 565.602 176.928C563.49 170.496 562.434 163.008 562.434 154.464C562.434 146.016 563.49 138.528 565.602 132C567.714 125.376 570.69 119.856 574.53 115.44C578.37 110.928 583.026 107.52 588.498 105.216C593.97 102.912 600.114 101.76 606.93 101.76C616.242 101.76 623.922 103.68 629.97 107.52C636.018 111.264 640.866 117.216 644.514 125.376L625.65 135.168C624.306 130.944 622.194 127.584 619.314 125.088C616.53 122.496 612.402 121.2 606.93 121.2C600.498 121.2 595.314 123.312 591.378 127.536C587.538 131.664 585.618 137.712 585.618 145.68V161.808C585.618 169.776 587.538 175.872 591.378 180.096C595.314 184.224 600.498 186.288 606.93 186.288C612.306 186.288 616.578 184.848 619.746 181.968C623.01 178.992 625.41 175.44 626.946 171.312L644.802 181.68C641.058 189.36 636.114 195.312 629.97 199.536C623.922 203.664 616.242 205.728 606.93 205.728ZM695.111 160.224L682.007 176.064V204H660.119V103.488H682.007V151.296H682.871L697.127 131.856L719.735 103.488H744.503L710.663 144.816L747.527 204H721.751L695.111 160.224ZM801.945 191.328H801.225C800.649 193.344 799.737 195.264 798.489 197.088C797.241 198.816 795.705 200.352 793.881 201.696C792.153 202.944 790.137 203.904 787.833 204.576C785.625 205.344 783.321 205.728 780.921 205.728C771.321 205.728 764.073 202.368 759.177 195.648C754.281 188.832 751.833 178.992 751.833 166.128C751.833 153.264 754.281 143.472 759.177 136.752C764.073 130.032 771.321 126.672 780.921 126.672C785.817 126.672 790.137 128.016 793.881 130.704C797.721 133.392 800.169 136.848 801.225 141.072H801.945V97.44H823.257V204H801.945V191.328ZM787.977 188.448C792.009 188.448 795.321 187.488 797.913 185.568C800.601 183.552 801.945 180.816 801.945 177.36V155.04C801.945 151.584 800.601 148.896 797.913 146.976C795.321 144.96 792.009 143.952 787.977 143.952C783.945 143.952 780.585 145.392 777.897 148.272C775.305 151.056 774.009 154.848 774.009 159.648V172.752C774.009 177.552 775.305 181.392 777.897 184.272C780.585 187.056 783.945 188.448 787.977 188.448ZM873.858 205.728C868.29 205.728 863.298 204.816 858.882 202.992C854.562 201.168 850.866 198.528 847.794 195.072C844.818 191.616 842.514 187.44 840.882 182.544C839.25 177.648 838.434 172.176 838.434 166.128C838.434 160.08 839.25 154.608 840.882 149.712C842.514 144.816 844.818 140.688 847.794 137.328C850.866 133.872 854.562 131.232 858.882 129.408C863.298 127.584 868.29 126.672 873.858 126.672C879.426 126.672 884.37 127.584 888.69 129.408C893.106 131.232 896.802 133.872 899.778 137.328C902.85 140.688 905.202 144.816 906.834 149.712C908.466 154.608 909.282 160.08 909.282 166.128C909.282 172.176 908.466 177.648 906.834 182.544C905.202 187.44 902.85 191.616 899.778 195.072C896.802 198.528 893.106 201.168 888.69 202.992C884.37 204.816 879.426 205.728 873.858 205.728ZM873.858 188.88C878.082 188.88 881.346 187.584 883.65 184.992C885.954 182.4 887.106 178.704 887.106 173.904V158.496C887.106 153.696 885.954 150 883.65 147.408C881.346 144.816 878.082 143.52 873.858 143.52C869.634 143.52 866.37 144.816 864.066 147.408C861.762 150 860.61 153.696 860.61 158.496V173.904C860.61 178.704 861.762 182.4 864.066 184.992C866.37 187.584 869.634 188.88 873.858 188.88ZM954.995 205.728C949.331 205.728 944.291 204.816 939.875 202.992C935.459 201.072 931.763 198.432 928.787 195.072C925.811 191.616 923.555 187.44 922.019 182.544C920.483 177.648 919.715 172.176 919.715 166.128C919.715 160.08 920.483 154.656 922.019 149.856C923.555 144.96 925.811 140.784 928.787 137.328C931.763 133.872 935.459 131.232 939.875 129.408C944.291 127.584 949.331 126.672 954.995 126.672C962.675 126.672 969.059 128.4 974.147 131.856C979.331 135.312 983.027 140.16 985.235 146.4L967.955 153.888C967.283 151.008 965.891 148.56 963.779 146.544C961.667 144.528 958.739 143.52 954.995 143.52C950.675 143.52 947.411 144.96 945.203 147.84C942.995 150.624 941.891 154.416 941.891 159.216V173.328C941.891 178.128 942.995 181.92 945.203 184.704C947.411 187.488 950.675 188.88 954.995 188.88C958.835 188.88 961.859 187.872 964.067 185.856C966.371 183.744 968.051 181.008 969.107 177.648L985.667 184.848C983.171 192.048 979.283 197.328 974.003 200.688C968.819 204.048 962.483 205.728 954.995 205.728ZM1024.49 205.728C1017.19 205.728 1011.05 204.576 1006.06 202.272C1001.07 199.872 996.602 196.512 992.666 192.192L1005.19 179.52C1007.88 182.496 1010.86 184.848 1014.12 186.576C1017.39 188.304 1021.08 189.168 1025.21 189.168C1029.43 189.168 1032.36 188.544 1033.99 187.296C1035.63 185.952 1036.44 184.176 1036.44 181.968C1036.44 178.416 1033.9 176.304 1028.81 175.632L1020.6 174.624C1003.61 172.512 995.114 164.736 995.114 151.296C995.114 147.648 995.786 144.336 997.13 141.36C998.57 138.288 1000.54 135.696 1003.03 133.584C1005.63 131.376 1008.7 129.696 1012.25 128.544C1015.9 127.296 1019.98 126.672 1024.49 126.672C1028.43 126.672 1031.88 126.96 1034.86 127.536C1037.93 128.016 1040.62 128.784 1042.92 129.84C1045.32 130.8 1047.48 132.048 1049.4 133.584C1051.42 135.024 1053.39 136.656 1055.31 138.48L1043.07 151.008C1040.67 148.608 1037.93 146.736 1034.86 145.392C1031.88 143.952 1028.81 143.232 1025.64 143.232C1021.99 143.232 1019.4 143.808 1017.87 144.96C1016.33 146.112 1015.56 147.648 1015.56 149.568C1015.56 151.584 1016.09 153.168 1017.15 154.32C1018.3 155.376 1020.41 156.144 1023.48 156.624L1031.98 157.776C1048.59 159.984 1056.89 167.568 1056.89 180.528C1056.89 184.176 1056.12 187.536 1054.59 190.608C1053.05 193.68 1050.84 196.368 1047.96 198.672C1045.18 200.88 1041.77 202.608 1037.74 203.856C1033.8 205.104 1029.39 205.728 1024.49 205.728Z" fill="white"/>
</svg>
